<?xml version="1.0" encoding="UTF-8"?>
<svg id="Capa_1" data-name="Capa 1" xmlns="http://www.w3.org/2000/svg" viewBox="0 0 264 593">
  <rect x=".5" y=".5" width="263" height="592" fill="#696969" stroke="#1d1d1b" stroke-miterlimit="10"/>
  <rect x="98.36" y="524" width="68.5" height="68.5" fill="#3cbff0" stroke="#1d1d1b" stroke-miterlimit="10"/>
  <rect x="24.36" y="438.5" width="63.5" height="63.5" fill="#3cbff0" stroke="#1d1d1b" stroke-miterlimit="10"/>
  <rect x="98.36" y="438.5" width="68.5" height="63.5" fill="#3cbff0" stroke="#1d1d1b" stroke-miterlimit="10"/>
  <rect x="176.61" y="438.5" width="68.5" height="63.5" fill="#3cbff0" stroke="#1d1d1b" stroke-miterlimit="10"/>
  <rect x="21.49" y="351.75" width="63.5" height="63.5" fill="#3cbff0" stroke="#1d1d1b" stroke-miterlimit="10"/>
  <rect x="95.49" y="351.75" width="68.5" height="63.5" fill="#3cbff0" stroke="#1d1d1b" stroke-miterlimit="10"/>
  <rect x="173.74" y="351.75" width="68.5" height="63.5" fill="#3cbff0" stroke="#1d1d1b" stroke-miterlimit="10"/>
  <rect x="21.49" y="268.75" width="63.5" height="63.5" fill="#3cbff0" stroke="#1d1d1b" stroke-miterlimit="10"/>
  <rect x="95.49" y="268.75" width="68.5" height="63.5" fill="#3cbff0" stroke="#1d1d1b" stroke-miterlimit="10"/>
  <rect x="173.74" y="268.75" width="68.5" height="63.5" fill="#3cbff0" stroke="#1d1d1b" stroke-miterlimit="10"/>
  <rect x="21.49" y="186.75" width="63.5" height="63.5" fill="#3cbff0" stroke="#1d1d1b" stroke-miterlimit="10"/>
  <rect x="95.49" y="186.75" width="68.5" height="63.5" fill="#3cbff0" stroke="#1d1d1b" stroke-miterlimit="10"/>
  <rect x="173.74" y="186.75" width="68.5" height="63.5" fill="#3cbff0" stroke="#1d1d1b" stroke-miterlimit="10"/>
  <rect x="21.49" y="104.75" width="63.5" height="63.5" fill="#3cbff0" stroke="#1d1d1b" stroke-miterlimit="10"/>
  <rect x="95.49" y="104.75" width="68.5" height="63.5" fill="#3cbff0" stroke="#1d1d1b" stroke-miterlimit="10"/>
  <rect x="173.74" y="104.75" width="68.5" height="63.5" fill="#3cbff0" stroke="#1d1d1b" stroke-miterlimit="10"/>
  <rect x="21.49" y="24.75" width="63.5" height="63.5" fill="#3cbff0" stroke="#1d1d1b" stroke-miterlimit="10"/>
  <rect x="95.49" y="24.75" width="68.5" height="63.5" fill="#3cbff0" stroke="#1d1d1b" stroke-miterlimit="10"/>
  <rect x="173.74" y="24.75" width="68.5" height="63.5" fill="#3cbff0" stroke="#1d1d1b" stroke-miterlimit="10"/>
</svg>