<?xml version="1.0" encoding="UTF-8"?>
<svg id="Capa_1" data-name="Capa 1" xmlns="http://www.w3.org/2000/svg" viewBox="0 0 298.48 697.13">
  <circle cx="197.43" cy="253.3" r="43" fill="#ffda00" stroke="#1d1d1b" stroke-miterlimit="10"/>
  <circle cx="183.38" cy="233.55" r="5.49" fill="#fff" stroke="#1d1d1b" stroke-miterlimit="10"/>
  <circle cx="210.32" cy="233.55" r="5.49" fill="#fff" stroke="#1d1d1b" stroke-miterlimit="10"/>
  <circle cx="183.57" cy="233.55" r="3.13" fill="#7c5412"/>
  <circle cx="210.32" cy="233.55" r="3.13" fill="#7c5412"/>
  <path d="m178.47,268.67s17.36,12.51,37.91,0" fill="none" stroke="#1d1d1b" stroke-miterlimit="10"/>
  <path d="m211.46,293.94s.9,33.59,32.56,25.25c0,0,27.06-4.77,32.68,17.7s24,122.04,20.94,133.28-25.02,18.89-29.11,0-13.33-110.3-13.81-118.98-19.89-8.68-17.34-3.06,14.3,124.06,13.79,133.52-93.45,5.38-93.45,5.38c6.64-76.09,20.43-129.7,13.79-137.36s-17.87,3.06-19.37,7.66,6.6,87.83,0,105.19-26.59,15.32-27.61,0-5.11-38.3-3.06-87.32,32.96-55.92,32.96-55.92c28.38,8.06,28.96-25.32,28.96-25.32" fill="#e52421" stroke="#1d1d1b" stroke-miterlimit="10"/>
  <path d="m157.72,487.02s-1.02,134.81,0,160.85-1.28,29.87,7.15,42.89,31.91-14.55,24-17.62-5.49-131.74-5.49-131.74c-7.66-.77,14.24-44.68,45.06-2.3,6.13,8.43,5.36,130.98,20.68,142.47s35.23,19.2,40.6,12.66-38.55-212.59-38.55-212.59l-93.45,5.38Z" fill="#2c3a8f" stroke="#1d1d1b" stroke-miterlimit="10"/>
</svg>